{
  "accessors": [
    {
      "bufferView": 2,
      "componentType": 5126,
      "count": 113,
      "max": [
        0.34693580865859985,
        0.3558894097805023,
        0.1660993993282318
      ],
      "min": [
        -0.3558894097805023,
        -0.346935898065567,
        -1.4901160305669237e-08
      ],
      "type": "VEC3"
    },
    {
      "bufferView": 2,
      "byteOffset": 1356,
      "componentType": 5126,
      "count": 113,
      "max": [
        0.9968851208686829,
        0.9968850016593933,
        1.0
      ],
      "min": [
        -0.9968851208686829,
        -0.9968850016593933,
        -1.0
      ],
      "type": "VEC3"
    },
    {
      "bufferView": 1,
      "componentType": 5126,
      "count": 113,
      "max": [
        0.3558894991874695,
        0.3558894991874695
      ],
      "min": [
        -0.3558894991874695,
        -0.3558894991874695
      ],
      "type": "VEC2"
    },
    {
      "bufferView": 0,
      "componentType": 5125,
      "count": 189,
      "type": "SCALAR"
    },
    {
      "bufferView": 2,
      "byteOffset": 2712,
      "componentType": 5126,
      "count": 80,
      "max": [
        0.07800000160932541,
        -0.6770728230476379,
        0.11705320328474045
      ],
      "min": [
        -0.07800000160932541,
        -1.3495219945907593,
        0.013053200207650661
      ],
      "type": "VEC3"
    },
    {
      "bufferView": 2,
      "byteOffset": 3672,
      "componentType": 5126,
      "count": 80,
      "max": [
        0.9639219045639038,
        -0.0,
        0.8493950366973877
      ],
      "min": [
        -0.9639219045639038,
        -1.0,
        -0.8493950366973877
      ],
      "type": "VEC3"
    },
    {
      "bufferView": 1,
      "byteOffset": 904,
      "componentType": 5126,
      "count": 80,
      "max": [
        1.3495219945907593,
        1.3495219945907593
      ],
      "min": [
        -1.3495219945907593,
        -1.3495219945907593
      ],
      "type": "VEC2"
    },
    {
      "bufferView": 0,
      "byteOffset": 756,
      "componentType": 5125,
      "count": 144,
      "type": "SCALAR"
    },
    {
      "bufferView": 2,
      "byteOffset": 4632,
      "componentType": 5126,
      "count": 173,
      "max": [
        0.5,
        0.5000001192092896,
        0.23609940707683563
      ],
      "min": [
        -0.5,
        -0.5000001192092896,
        0.12999990582466125
      ],
      "type": "VEC3"
    },
    {
      "bufferView": 2,
      "byteOffset": 6708,
      "componentType": 5126,
      "count": 173,
      "max": [
        1.0,
        1.0,
        1.0
      ],
      "min": [
        -1.0,
        -1.0,
        -1.0
      ],
      "type": "VEC3"
    },
    {
      "bufferView": 1,
      "byteOffset": 1544,
      "componentType": 5126,
      "count": 173,
      "max": [
        0.5000001192092896,
        0.5000001192092896
      ],
      "min": [
        -0.5000001192092896,
        -0.5000001192092896
      ],
      "type": "VEC2"
    },
    {
      "bufferView": 0,
      "byteOffset": 1332,
      "componentType": 5125,
      "count": 285,
      "type": "SCALAR"
    },
    {
      "bufferView": 2,
      "byteOffset": 8784,
      "componentType": 5126,
      "count": 9,
      "max": [
        0.0234839990735054,
        -1.2841390371322632,
        0.08070880174636841
      ],
      "min": [
        -0.0234839990735054,
        -1.2841399908065796,
        0.04939720034599304
      ],
      "type": "VEC3"
    },
    {
      "bufferView": 2,
      "byteOffset": 8892,
      "componentType": 5126,
      "count": 9,
      "max": [
        0.0,
        -1.0,
        0.0
      ],
      "min": [
        0.0,
        -1.0,
        0.0
      ],
      "type": "VEC3"
    },
    {
      "bufferView": 1,
      "byteOffset": 2928,
      "componentType": 5126,
      "count": 9,
      "max": [
        0.0234839990735054,
        0.08070880174636841
      ],
      "min": [
        -0.0234839990735054,
        0.04939720034599304
      ],
      "type": "VEC2"
    },
    {
      "bufferView": 0,
      "byteOffset": 2472,
      "componentType": 5125,
      "count": 24,
      "type": "SCALAR"
    },
    {
      "bufferView": 2,
      "byteOffset": 9000,
      "componentType": 5126,
      "count": 8,
      "max": [
        -0.8492715954780579,
        -0.24887299537658691,
        0.3175469934940338
      ],
      "min": [
        -1.1507279872894287,
        -0.6235640048980713,
        0.12827099859714508
      ],
      "type": "VEC3"
    },
    {
      "bufferView": 2,
      "byteOffset": 9096,
      "componentType": 5126,
      "count": 8,
      "max": [
        0.0,
        0.8143736720085144,
        0.5803407430648804
      ],
      "min": [
        0.0,
        -0.0018333301413804293,
        -0.9999982714653015
      ],
      "type": "VEC3"
    },
    {
      "bufferView": 1,
      "byteOffset": 3000,
      "componentType": 5126,
      "count": 8,
      "max": [
        1.1507279872894287,
        0.6235640048980713
      ],
      "min": [
        0.8492715954780579,
        -0.5167610049247742
      ],
      "type": "VEC2"
    },
    {
      "bufferView": 0,
      "byteOffset": 2568,
      "componentType": 5125,
      "count": 12,
      "type": "SCALAR"
    },
    {
      "bufferView": 2,
      "byteOffset": 9192,
      "componentType": 5126,
      "count": 4481,
      "max": [
        0.628051221370697,
        0.699999988079071,
        0.6499999761581421
      ],
      "min": [
        -2.6280510425567627,
        -2.6280510425567627,
        -0.1882012039422989
      ],
      "type": "VEC3"
    },
    {
      "bufferView": 2,
      "byteOffset": 62964,
      "componentType": 5126,
      "count": 4481,
      "max": [
        1.0,
        1.0,
        1.0
      ],
      "min": [
        -1.0,
        -1.0,
        -1.0
      ],
      "type": "VEC3"
    },
    {
      "bufferView": 1,
      "byteOffset": 3064,
      "componentType": 5126,
      "count": 4481,
      "max": [
        2.6280510425567627,
        2.6280510425567627
      ],
      "min": [
        -2.4124441146850586,
        -2.6280510425567627
      ],
      "type": "VEC2"
    },
    {
      "bufferView": 0,
      "byteOffset": 2616,
      "componentType": 5125,
      "count": 7860,
      "type": "SCALAR"
    },
    {
      "bufferView": 2,
      "byteOffset": 116736,
      "componentType": 5126,
      "count": 2010,
      "max": [
        0.02420479990541935,
        0.699999988079071,
        0.5472121834754944
      ],
      "min": [
        -2.078000068664551,
        -2.0012149810791016,
        -0.2767964005470276
      ],
      "type": "VEC3"
    },
    {
      "bufferView": 2,
      "byteOffset": 140856,
      "componentType": 5126,
      "count": 2010,
      "max": [
        1.0,
        1.0,
        1.0
      ],
      "min": [
        -1.0,
        -1.0,
        -1.0
      ],
      "type": "VEC3"
    },
    {
      "bufferView": 1,
      "byteOffset": 38912,
      "componentType": 5126,
      "count": 2010,
      "max": [
        2.0551540851593018,
        2.0012149810791016
      ],
      "min": [
        -2.0592288970947266,
        -2.0012149810791016
      ],
      "type": "VEC2"
    },
    {
      "bufferView": 0,
      "byteOffset": 34056,
      "componentType": 5125,
      "count": 3144,
      "type": "SCALAR"
    },
    {
      "bufferView": 2,
      "byteOffset": 164976,
      "componentType": 5126,
      "count": 5128,
      "max": [
        0.696150004863739,
        0.699999988079071,
        0.5493358969688416
      ],
      "min": [
        -2.696150064468384,
        -2.696150064468384,
        -0.30000001192092896
      ],
      "type": "VEC3"
    },
    {
      "bufferView": 2,
      "byteOffset": 226512,
      "componentType": 5126,
      "count": 5128,
      "max": [
        1.0,
        1.0,
        1.0
      ],
      "min": [
        -1.0,
        -1.0,
        -1.0
      ],
      "type": "VEC3"
    },
    {
      "bufferView": 1,
      "byteOffset": 54992,
      "componentType": 5126,
      "count": 5128,
      "max": [
        2.6885828971862793,
        2.6885828971862793
      ],
      "min": [
        -2.5,
        -2.6885828971862793
      ],
      "type": "VEC2"
    },
    {
      "bufferView": 0,
      "byteOffset": 46632,
      "componentType": 5125,
      "count": 9897,
      "type": "SCALAR"
    },
    {
      "bufferView": 2,
      "byteOffset": 288048,
      "componentType": 5126,
      "count": 228,
      "max": [
        0.696150004863739,
        -1.3038500547409058,
        0.12693500518798828
      ],
      "min": [
        -0.696150004863739,
        -2.696150064468384,
        0.0013279999839141965
      ],
      "type": "VEC3"
    },
    {
      "bufferView": 2,
      "byteOffset": 290784,
      "componentType": 5126,
      "count": 228,
      "max": [
        0.9999747276306152,
        0.9957637190818787,
        0.9991703629493713
      ],
      "min": [
        -0.9999747276306152,
        -0.9957638382911682,
        -0.9985858798027039
      ],
      "type": "VEC3"
    },
    {
      "bufferView": 1,
      "byteOffset": 96016,
      "componentType": 5126,
      "count": 228,
      "max": [
        2.492253065109253,
        2.6885828971862793
      ],
      "min": [
        -2.492253065109253,
        -2.6885828971862793
      ],
      "type": "VEC2"
    },
    {
      "bufferView": 0,
      "byteOffset": 86220,
      "componentType": 5125,
      "count": 864,
      "type": "SCALAR"
    },
    {
      "bufferView": 2,
      "byteOffset": 293520,
      "componentType": 5126,
      "count": 60,
      "max": [
        -0.8234804272651672,
        0.0661391094326973,
        0.5458238124847412
      ],
      "min": [
        -2.023483991622925,
        -1.8707280158996582,
        0.033663611859083176
      ],
      "type": "VEC3"
    },
    {
      "bufferView": 2,
      "byteOffset": 294240,
      "componentType": 5126,
      "count": 60,
      "max": [
        8.743490553797528e-08,
        1.0,
        0.09759650379419327
      ],
      "min": [
        -0.00019991253793705255,
        -1.0,
        -0.00013333329115994275
      ],
      "type": "VEC3"
    },
    {
      "bufferView": 1,
      "byteOffset": 97840,
      "componentType": 5126,
      "count": 60,
      "max": [
        1.0751270055770874,
        0.5458238124847412
      ],
      "min": [
        -2.023483991622925,
        0.033663611859083176
      ],
      "type": "VEC2"
    },
    {
      "bufferView": 0,
      "byteOffset": 89676,
      "componentType": 5125,
      "count": 123,
      "type": "SCALAR"
    }
  ],
  "asset": {
    "extras": {
      "author": "kalinarm (https://sketchfab.com/kalinarm)",
      "license": "CC-BY-SA-4.0 (http://creativecommons.org/licenses/by-sa/4.0/)",
      "source": "https://sketchfab.com/3d-models/drone-9afce7aa67d246f2b9f42ad2eecc2a29",
      "title": "Drone"
    },
    "generator": "Sketchfab-12.66.0",
    "version": "2.0"
  },
  "bufferViews": [
    {
      "buffer": 0,
      "byteLength": 90168,
      "name": "floatBufferViews",
      "target": 34963
    },
    {
      "buffer": 0,
      "byteLength": 98320,
      "byteOffset": 90168,
      "byteStride": 8,
      "name": "floatBufferViews",
      "target": 34962
    },
    {
      "buffer": 0,
      "byteLength": 294960,
      "byteOffset": 188488,
      "byteStride": 12,
      "name": "floatBufferViews",
      "target": 34962
    }
  ],
  "buffers": [
    {
      "byteLength": 483448,
      "uri": "drone.bin"
    }
  ],
  "materials": [
    {
      "doubleSided": true,
      "name": "defaultMat_Instance",
      "pbrMetallicRoughness": {
        "metallicFactor": 0.0
      }
    },
    {
      "doubleSided": true,
      "name": "defaultMat_Instance_Instance",
      "pbrMetallicRoughness": {
        "metallicFactor": 0.0
      }
    },
    {
      "doubleSided": true,
      "name": "black_Instance",
      "pbrMetallicRoughness": {
        "baseColorFactor": [
          0.267,
          0.267,
          0.267,
          1.0
        ],
        "metallicFactor": 0.0
      }
    },
    {
      "doubleSided": true,
      "name": "black_Instance_Instance",
      "pbrMetallicRoughness": {
        "baseColorFactor": [
          0.267,
          0.267,
          0.267,
          1.0
        ],
        "metallicFactor": 0.0
      }
    },
    {
      "doubleSided": true,
      "name": "blueSteel_Instance",
      "pbrMetallicRoughness": {
        "baseColorFactor": [
          0.141,
          0.565,
          0.831,
          1.0
        ],
        "metallicFactor": 0.0
      }
    },
    {
      "doubleSided": true,
      "name": "blueSteel_Instance_Instance",
      "pbrMetallicRoughness": {
        "baseColorFactor": [
          0.141,
          0.565,
          0.831,
          1.0
        ],
        "metallicFactor": 0.0
      }
    },
    {
      "doubleSided": true,
      "name": "engine_Instance",
      "pbrMetallicRoughness": {
        "baseColorFactor": [
          0.459,
          1.0,
          0.855,
          1.0
        ],
        "metallicFactor": 0.0
      }
    },
    {
      "doubleSided": true,
      "name": "engine_Instance_Instance",
      "pbrMetallicRoughness": {
        "baseColorFactor": [
          0.459,
          1.0,
          0.855,
          1.0
        ],
        "metallicFactor": 0.0
      }
    },
    {
      "doubleSided": true,
      "name": "glass_Instance",
      "pbrMetallicRoughness": {
        "baseColorFactor": [
          0.298,
          0.314,
          0.365,
          1.0
        ],
        "metallicFactor": 0.0
      }
    }
  ],
  "meshes": [
    {
      "name": "Object_0",
      "primitives": [
        {
          "attributes": {
            "NORMAL": 1,
            "POSITION": 0,
            "TEXCOORD_0": 2
          },
          "indices": 3,
          "material": 0,
          "mode": 4
        }
      ]
    },
    {
      "name": "Object_1",
      "primitives": [
        {
          "attributes": {
            "NORMAL": 5,
            "POSITION": 4,
            "TEXCOORD_0": 6
          },
          "indices": 7,
          "material": 2,
          "mode": 4
        }
      ]
    },
    {
      "name": "Object_2",
      "primitives": [
        {
          "attributes": {
            "NORMAL": 9,
            "POSITION": 8,
            "TEXCOORD_0": 10
          },
          "indices": 11,
          "material": 4,
          "mode": 4
        }
      ]
    },
    {
      "name": "Object_3",
      "primitives": [
        {
          "attributes": {
            "NORMAL": 13,
            "POSITION": 12,
            "TEXCOORD_0": 14
          },
          "indices": 15,
          "material": 6,
          "mode": 4
        }
      ]
    },
    {
      "name": "Object_4",
      "primitives": [
        {
          "attributes": {
            "NORMAL": 17,
            "POSITION": 16,
            "TEXCOORD_0": 18
          },
          "indices": 19,
          "material": 8,
          "mode": 4
        }
      ]
    },
    {
      "name": "Object_5",
      "primitives": [
        {
          "attributes": {
            "NORMAL": 21,
            "POSITION": 20,
            "TEXCOORD_0": 22
          },
          "indices": 23,
          "material": 1,
          "mode": 4
        }
      ]
    },
    {
      "name": "Object_6",
      "primitives": [
        {
          "attributes": {
            "NORMAL": 25,
            "POSITION": 24,
            "TEXCOORD_0": 26
          },
          "indices": 27,
          "material": 3,
          "mode": 4
        }
      ]
    },
    {
      "name": "Object_7",
      "primitives": [
        {
          "attributes": {
            "NORMAL": 29,
            "POSITION": 28,
            "TEXCOORD_0": 30
          },
          "indices": 31,
          "material": 5,
          "mode": 4
        }
      ]
    },
    {
      "name": "Object_8",
      "primitives": [
        {
          "attributes": {
            "NORMAL": 33,
            "POSITION": 32,
            "TEXCOORD_0": 34
          },
          "indices": 35,
          "material": 5,
          "mode": 4
        }
      ]
    },
    {
      "name": "Object_9",
      "primitives": [
        {
          "attributes": {
            "NORMAL": 37,
            "POSITION": 36,
            "TEXCOORD_0": 38
          },
          "indices": 39,
          "material": 7,
          "mode": 4
        }
      ]
    }
  ],
  "nodes": [
    {
      "children": [
        1
      ],
      "matrix": [
        2.4678690433502197,
        0.0,
        0.0,
        0.0,
        0.0,
        5.479770067374145e-16,
        -2.4678690433502197,
        0.0,
        0.0,
        2.4678690433502197,
        5.479770067374145e-16,
        0.0,
        0.0,
        0.0,
        0.0,
        1.0
      ],
      "name": "Sketchfab_model"
    },
    {
      "children": [
        2,
        3,
        4,
        5,
        6,
        7,
        8,
        9,
        10,
        11
      ],
      "name": "drone.obj.cleaner.materialmerger.gles"
    },
    {
      "mesh": 0,
      "name": "Object_2"
    },
    {
      "mesh": 1,
      "name": "Object_3"
    },
    {
      "mesh": 2,
      "name": "Object_4"
    },
    {
      "mesh": 3,
      "name": "Object_5"
    },
    {
      "mesh": 4,
      "name": "Object_6"
    },
    {
      "mesh": 5,
      "name": "Object_7"
    },
    {
      "mesh": 6,
      "name": "Object_8"
    },
    {
      "mesh": 7,
      "name": "Object_9"
    },
    {
      "mesh": 8,
      "name": "Object_10"
    },
    {
      "mesh": 9,
      "name": "Object_11"
    }
  ],
  "scene": 0,
  "scenes": [
    {
      "name": "Sketchfab_Scene",
      "nodes": [
        0
      ]
    }
  ]
}
