<?xml version="1.0" standalone="no"?>
<!DOCTYPE svg PUBLIC "-//W3C//DTD SVG 20010904//EN"
 "http://www.w3.org/TR/2001/REC-SVG-20010904/DTD/svg10.dtd">
<svg version="1.0" xmlns="http://www.w3.org/2000/svg"
 width="640.000000pt" height="640.000000pt" viewBox="0 0 640.000000 640.000000"
 preserveAspectRatio="xMidYMid meet">
<metadata>
Created by potrace 1.14, written by Peter Selinger 2001-2017
</metadata>
<g transform="translate(0.000000,640.000000) scale(0.100000,-0.100000)"
fill="#000000" stroke="none">
<path d="M0 3200 l0 -3200 3200 0 3200 0 0 3200 0 3200 -3200 0 -3200 0 0
-3200z m1771 2081 c107 -67 316 -419 510 -856 24 -55 135 -283 246 -507 l203
-408 51 0 51 0 -6 38 c-83 518 -96 1083 -30 1283 21 64 47 85 117 92 51 5 60
3 86 -19 19 -15 35 -44 44 -75 15 -49 14 -54 -24 -202 l-40 -152 15 -560 c9
-308 20 -733 26 -945 5 -212 13 -445 16 -517 l6 -133 29 0 c63 0 105 -32 122
-90 2 -8 -15 -53 -39 -100 -61 -123 -66 -150 -59 -308 l7 -137 -46 -45 -46
-44 -120 24 -120 23 -273 -76 c-243 -69 -281 -77 -357 -77 -148 0 -218 50
-267 191 -33 95 -40 206 -18 289 126 490 358 893 659 1149 l86 73 0 50 c0 38
-16 90 -75 232 -346 850 -612 1370 -780 1525 -34 31 -54 40 -105 49 -34 6 -64
13 -66 14 -5 5 -8 118 -3 121 2 2 34 31 71 65 37 34 71 62 76 62 4 0 29 -13
53 -29z m2526 -306 c96 -40 140 -108 168 -260 21 -111 17 -148 -35 -305 -151
-455 -373 -801 -662 -1032 l-90 -72 5 -66 c5 -64 13 -86 195 -557 229 -593
448 -1033 588 -1183 45 -48 72 -62 147 -75 l37 -6 0 -62 0 -63 -69 -57 c-38
-31 -79 -57 -91 -57 -11 0 -41 19 -67 42 -111 103 -273 401 -454 836 -64 154
-136 314 -318 702 l-110 235 -45 3 -46 3 0 -48 c0 -26 7 -111 15 -188 37 -344
38 -785 1 -976 -30 -155 -63 -199 -151 -199 -69 0 -100 24 -120 95 l-16 53 46
158 45 159 0 1066 0 1066 -47 6 c-37 4 -54 12 -75 36 -15 17 -28 41 -28 53 0
12 24 69 53 126 l52 104 0 154 0 153 35 36 c54 57 56 57 180 26 l113 -28 261
67 c224 58 274 68 354 69 63 1 104 -4 129 -14z"/>
<path d="M2635 2989 c-40 -39 -112 -117 -160 -173 -320 -378 -437 -668 -397
-981 6 -46 13 -56 68 -107 60 -55 63 -56 110 -51 192 18 412 123 547 261 l48
48 -10 420 c-14 573 -15 581 -54 622 -47 48 -68 43 -152 -39z"/>
<path d="M4015 4803 c-172 -24 -357 -112 -503 -240 l-43 -38 -2 -507 -2 -507
29 -30 c23 -24 39 -31 66 -31 34 0 46 10 151 118 263 269 414 488 490 712 30
87 33 108 37 250 l4 156 -63 62 c-67 65 -74 67 -164 55z"/>
</g>
</svg>
